<svg width="124" height="109" viewBox="0 0 124 109" fill="none" xmlns="http://www.w3.org/2000/svg">
<g clip-path="url(#clip0_709_3505)">
<path d="M72.8438 0H50.5263L25 78H27.3492L30.3677 68.6231L31.6605 64.4256L35.8536 51.3125L46.5956 18.6944L56.419 48.4592L58.2432 53.7506H58.276L65.6649 76.1483H65.6321L66.2489 78H99L98.0157 76.1483L72.8438 0Z" fill="#F7451B"/>
</g>
<path d="M7.984 100.016H3.792L3.12 102H0.256L4.32 90.768H7.488L11.552 102H8.656L7.984 100.016ZM7.28 97.904L5.888 93.792L4.512 97.904H7.28ZM15.5249 94.56C15.8449 94.0693 16.2449 93.6853 16.7249 93.408C17.2049 93.12 17.7382 92.976 18.3249 92.976V95.872H17.5729C16.8902 95.872 16.3782 96.0213 16.0369 96.32C15.6955 96.608 15.5249 97.12 15.5249 97.856V102H12.7889V93.072H15.5249V94.56ZM25.0886 102L22.3686 98.256V102H19.6326V90.16H22.3686V96.704L25.0726 93.072H28.4486L24.7366 97.552L28.4806 102H25.0886ZM28.9793 97.52C28.9793 96.6027 29.1499 95.7973 29.4913 95.104C29.8433 94.4107 30.3179 93.8773 30.9153 93.504C31.5126 93.1307 32.1793 92.944 32.9153 92.944C33.5446 92.944 34.0939 93.072 34.5633 93.328C35.0433 93.584 35.4113 93.92 35.6673 94.336V93.072H38.4033V102H35.6673V100.736C35.4006 101.152 35.0273 101.488 34.5473 101.744C34.0779 102 33.5286 102.128 32.8993 102.128C32.1739 102.128 31.5126 101.941 30.9153 101.568C30.3179 101.184 29.8433 100.645 29.4913 99.952C29.1499 99.248 28.9793 98.4373 28.9793 97.52ZM35.6673 97.536C35.6673 96.8533 35.4753 96.3147 35.0913 95.92C34.7179 95.5253 34.2593 95.328 33.7153 95.328C33.1713 95.328 32.7073 95.5253 32.3233 95.92C31.9499 96.304 31.7633 96.8373 31.7633 97.52C31.7633 98.2027 31.9499 98.7467 32.3233 99.152C32.7073 99.5467 33.1713 99.744 33.7153 99.744C34.2593 99.744 34.7179 99.5467 35.0913 99.152C35.4753 98.7573 35.6673 98.2187 35.6673 97.536ZM51.7746 92.976C52.884 92.976 53.764 93.312 54.4146 93.984C55.076 94.656 55.4066 95.5893 55.4066 96.784V102H52.6866V97.152C52.6866 96.576 52.532 96.1333 52.2226 95.824C51.924 95.504 51.508 95.344 50.9746 95.344C50.4413 95.344 50.02 95.504 49.7106 95.824C49.412 96.1333 49.2626 96.576 49.2626 97.152V102H46.5426V97.152C46.5426 96.576 46.388 96.1333 46.0786 95.824C45.78 95.504 45.364 95.344 44.8306 95.344C44.2973 95.344 43.876 95.504 43.5666 95.824C43.268 96.1333 43.1186 96.576 43.1186 97.152V102H40.3826V93.072H43.1186V94.192C43.396 93.8187 43.7586 93.5253 44.2066 93.312C44.6546 93.088 45.1613 92.976 45.7266 92.976C46.3986 92.976 46.996 93.12 47.5186 93.408C48.052 93.696 48.468 94.1067 48.7666 94.64C49.076 94.1493 49.4973 93.7493 50.0306 93.44C50.564 93.1307 51.1453 92.976 51.7746 92.976ZM58.6001 102.128C58.1201 102.128 57.7255 101.989 57.4161 101.712C57.1175 101.424 56.9681 101.072 56.9681 100.656C56.9681 100.229 57.1175 99.872 57.4161 99.584C57.7255 99.296 58.1201 99.152 58.6001 99.152C59.0695 99.152 59.4535 99.296 59.7521 99.584C60.0615 99.872 60.2161 100.229 60.2161 100.656C60.2161 101.072 60.0615 101.424 59.7521 101.712C59.4535 101.989 59.0695 102.128 58.6001 102.128ZM61.2918 97.52C61.2918 96.6027 61.4624 95.7973 61.8038 95.104C62.1558 94.4107 62.6304 93.8773 63.2278 93.504C63.8251 93.1307 64.4918 92.944 65.2278 92.944C65.8571 92.944 66.4064 93.072 66.8758 93.328C67.3558 93.584 67.7238 93.92 67.9798 94.336V93.072H70.7158V102H67.9798V100.736C67.7131 101.152 67.3398 101.488 66.8598 101.744C66.3904 102 65.8411 102.128 65.2118 102.128C64.4864 102.128 63.8251 101.941 63.2278 101.568C62.6304 101.184 62.1558 100.645 61.8038 99.952C61.4624 99.248 61.2918 98.4373 61.2918 97.52ZM67.9798 97.536C67.9798 96.8533 67.7878 96.3147 67.4038 95.92C67.0304 95.5253 66.5718 95.328 66.0278 95.328C65.4838 95.328 65.0198 95.5253 64.6358 95.92C64.2624 96.304 64.0758 96.8373 64.0758 97.52C64.0758 98.2027 64.2624 98.7467 64.6358 99.152C65.0198 99.5467 65.4838 99.744 66.0278 99.744C66.5718 99.744 67.0304 99.5467 67.4038 99.152C67.7878 98.7573 67.9798 98.2187 67.9798 97.536ZM76.0871 92.944C76.7165 92.944 77.2658 93.072 77.7351 93.328C78.2151 93.584 78.5831 93.92 78.8391 94.336V93.072H81.5751V101.984C81.5751 102.805 81.4098 103.547 81.0791 104.208C80.7591 104.88 80.2631 105.413 79.5911 105.808C78.9298 106.203 78.1031 106.4 77.1111 106.4C75.7885 106.4 74.7165 106.085 73.8951 105.456C73.0738 104.837 72.6045 103.995 72.4871 102.928H75.1911C75.2765 103.269 75.4791 103.536 75.7991 103.728C76.1191 103.931 76.5138 104.032 76.9831 104.032C77.5485 104.032 77.9965 103.867 78.3271 103.536C78.6685 103.216 78.8391 102.699 78.8391 101.984V100.72C78.5725 101.136 78.2045 101.477 77.7351 101.744C77.2658 102 76.7165 102.128 76.0871 102.128C75.3511 102.128 74.6845 101.941 74.0871 101.568C73.4898 101.184 73.0151 100.645 72.6631 99.952C72.3218 99.248 72.1511 98.4373 72.1511 97.52C72.1511 96.6027 72.3218 95.7973 72.6631 95.104C73.0151 94.4107 73.4898 93.8773 74.0871 93.504C74.6845 93.1307 75.3511 92.944 76.0871 92.944ZM78.8391 97.536C78.8391 96.8533 78.6471 96.3147 78.2631 95.92C77.8898 95.5253 77.4311 95.328 76.8871 95.328C76.3431 95.328 75.8791 95.5253 75.4951 95.92C75.1218 96.304 74.9351 96.8373 74.9351 97.52C74.9351 98.2027 75.1218 98.7467 75.4951 99.152C75.8791 99.5467 76.3431 99.744 76.8871 99.744C77.4311 99.744 77.8898 99.5467 78.2631 99.152C78.6471 98.7573 78.8391 98.2187 78.8391 97.536ZM91.9705 97.392C91.9705 97.648 91.9545 97.9147 91.9225 98.192H85.7305C85.7732 98.7467 85.9492 99.1733 86.2585 99.472C86.5785 99.76 86.9678 99.904 87.4265 99.904C88.1092 99.904 88.5838 99.616 88.8505 99.04H91.7625C91.6132 99.6267 91.3412 100.155 90.9465 100.624C90.5625 101.093 90.0772 101.461 89.4905 101.728C88.9038 101.995 88.2478 102.128 87.5225 102.128C86.6478 102.128 85.8692 101.941 85.1865 101.568C84.5038 101.195 83.9705 100.661 83.5865 99.968C83.2025 99.2747 83.0105 98.464 83.0105 97.536C83.0105 96.608 83.1972 95.7973 83.5705 95.104C83.9545 94.4107 84.4878 93.8773 85.1705 93.504C85.8532 93.1307 86.6372 92.944 87.5225 92.944C88.3865 92.944 89.1545 93.1253 89.8265 93.488C90.4985 93.8507 91.0212 94.368 91.3945 95.04C91.7785 95.712 91.9705 96.496 91.9705 97.392ZM89.1705 96.672C89.1705 96.2027 89.0105 95.8293 88.6905 95.552C88.3705 95.2747 87.9705 95.136 87.4905 95.136C87.0318 95.136 86.6425 95.2693 86.3225 95.536C86.0132 95.8027 85.8212 96.1813 85.7465 96.672H89.1705ZM98.8539 92.976C99.8992 92.976 100.731 93.3173 101.35 94C101.979 94.672 102.294 95.6 102.294 96.784V102H99.5739V97.152C99.5739 96.5547 99.4192 96.0907 99.1099 95.76C98.8005 95.4293 98.3845 95.264 97.8619 95.264C97.3392 95.264 96.9232 95.4293 96.6139 95.76C96.3045 96.0907 96.1499 96.5547 96.1499 97.152V102H93.4139V93.072H96.1499V94.256C96.4272 93.8613 96.8005 93.552 97.2699 93.328C97.7392 93.0933 98.2672 92.976 98.8539 92.976ZM103.651 97.536C103.651 96.608 103.838 95.7973 104.211 95.104C104.595 94.4107 105.123 93.8773 105.795 93.504C106.478 93.1307 107.256 92.944 108.131 92.944C109.251 92.944 110.184 93.2373 110.931 93.824C111.688 94.4107 112.184 95.2373 112.419 96.304H109.507C109.262 95.6213 108.787 95.28 108.083 95.28C107.582 95.28 107.182 95.4773 106.883 95.872C106.584 96.256 106.435 96.8107 106.435 97.536C106.435 98.2613 106.584 98.8213 106.883 99.216C107.182 99.6 107.582 99.792 108.083 99.792C108.787 99.792 109.262 99.4507 109.507 98.768H112.419C112.184 99.8133 111.688 100.635 110.931 101.232C110.174 101.829 109.24 102.128 108.131 102.128C107.256 102.128 106.478 101.941 105.795 101.568C105.123 101.195 104.595 100.661 104.211 99.968C103.838 99.2747 103.651 98.464 103.651 97.536ZM123.003 93.072L117.403 106.24H114.459L116.507 101.696L112.875 93.072H115.931L117.995 98.656L120.043 93.072H123.003Z" fill="#F7451B"/>
<defs>
<clipPath id="clip0_709_3505">
<rect width="74" height="78" fill="white" transform="translate(25)"/>
</clipPath>
</defs>
</svg>
