<svg width="269" height="118" viewBox="0 0 269 118" fill="none" xmlns="http://www.w3.org/2000/svg">
<path d="M269 112.399C268.613 113.7 268.182 114.99 267.851 116.304C267.647 117.118 267.26 117.482 266.401 117.477C261.282 117.452 256.163 117.463 251.044 117.466C250.321 117.466 249.742 117.357 249.737 116.41C249.731 115.492 250.229 115.332 250.996 115.316C252.76 115.283 253.148 114.938 253.161 113.152C253.199 108.69 253.202 104.229 253.161 99.771C253.145 97.8948 252.884 97.7401 251.033 97.3545C250.657 97.2758 250.194 96.6648 250.127 96.244C249.995 95.4267 250.638 95.2584 251.327 95.2611C254.915 95.2692 258.504 95.2638 262.089 95.2611C263.227 95.2611 264.365 95.291 265.503 95.2529C266.356 95.2231 266.821 95.5299 266.869 96.4368C266.937 97.6722 267.133 98.9049 267.112 100.135C267.103 100.545 266.592 101.27 266.305 101.275C265.823 101.281 265.062 100.941 264.895 100.539C263.728 97.7808 263.698 97.7156 260.677 97.7075C258.543 97.7002 257.476 98.7872 257.476 100.968C257.476 102.114 257.476 103.257 257.476 104.498C259.068 104.498 260.583 104.577 262.081 104.441C262.431 104.409 262.894 103.695 262.999 103.225C263.203 102.302 263.641 101.949 264.548 102.063C265.514 102.185 265.403 102.91 265.406 103.561C265.417 105.239 265.468 106.923 265.366 108.593C265.342 109.008 264.876 109.603 264.483 109.741C263.808 109.98 263.155 109.711 263.095 108.821C263.015 107.558 262.27 107.197 261.148 107.224C259.978 107.254 258.808 107.23 257.557 107.23V114.876C259.736 114.876 261.914 115.028 264.061 114.821C265.403 114.691 265.909 113.336 266.391 112.177C266.996 110.719 267.558 110.54 269 111.335V112.397V112.399Z" fill="white"/>
<path d="M0 104.709C0.96033 100.843 3.14999 97.962 6.76804 96.2894C11.1205 94.2774 15.6154 94.5136 20.1293 95.6052C20.479 95.6893 20.9013 96.2107 20.9739 96.5935C21.2322 97.9348 21.4151 99.2978 21.4904 100.661C21.5119 101.041 21.0681 101.763 20.8125 101.774C20.3095 101.796 19.524 101.579 19.3196 101.204C17.4231 97.7122 16.14 96.941 12.3525 97.3049C8.96846 97.6307 6.4291 99.1729 5.38 102.589C4.47616 105.529 4.67791 108.456 6.0525 111.22C7.49165 114.107 9.93148 115.385 13.0869 115.461C16.097 115.535 18.3162 114.291 19.7285 111.598C19.871 111.326 19.984 110.897 20.1992 110.829C20.7372 110.664 21.3425 110.563 21.8831 110.656C22.0445 110.683 22.0957 111.438 22.1683 111.864C22.1871 111.981 22.1037 112.116 22.0634 112.244C20.5193 117.044 20.522 117.069 15.5751 117.794C12.8986 118.185 10.2462 117.989 7.66919 117.118C3.94623 115.861 1.60593 113.238 0.38198 109.531C0.25824 109.159 0.12643 108.79 0 108.421C0 107.183 0 105.947 0 104.709Z" fill="white"/>
<path d="M31.4919 107.156C31.4919 109.52 31.4542 111.717 31.508 113.911C31.5349 115.024 32.4603 115.203 33.2996 115.266C34.1415 115.328 34.6473 115.597 34.5666 116.531C34.4859 117.471 33.8053 117.465 33.1247 117.465C31.5941 117.465 30.0581 117.416 28.5302 117.479C27.3601 117.528 27.0238 117.017 27.0319 115.898C27.0695 110.729 27.0561 105.559 27.0399 100.392C27.0319 97.9781 26.9996 98.0216 24.6808 97.3916C24.2988 97.2885 23.8657 96.645 23.8308 96.2214C23.8066 95.9309 24.4199 95.3254 24.7723 95.3091C26.6069 95.2168 28.4468 95.2738 30.2841 95.2602C31.1583 95.2548 31.4112 95.7489 31.4085 96.5309C31.3977 98.6515 31.4058 100.772 31.4085 102.893C31.4085 103.365 31.4085 103.838 31.4085 104.443C34.6742 104.443 37.7704 104.462 40.8639 104.405C41.1006 104.4 41.5121 103.857 41.5229 103.552C41.5794 102.097 41.5229 100.639 41.5068 99.181C41.4933 98.0786 41.0468 97.4269 39.8497 97.4622C39.0885 97.484 38.3406 97.3048 38.5236 96.3137C38.5962 95.9254 39.0804 95.3335 39.4032 95.3145C41.2378 95.2168 43.0777 95.2548 44.915 95.2711C45.9372 95.2792 45.9211 96.0286 45.9211 96.7699C45.9157 101.587 45.9184 106.401 45.9211 111.217C45.9211 111.837 45.9157 112.456 45.9345 113.072C45.991 114.812 46.1712 115.057 47.8686 115.269C48.6353 115.364 49.1222 115.575 49.0872 116.452C49.0522 117.392 48.4254 117.465 47.718 117.462C46.0986 117.457 44.4792 117.435 42.8598 117.471C41.8914 117.492 41.539 117.058 41.5498 116.113C41.5767 113.506 41.5875 110.9 41.5283 108.293C41.5202 107.908 41.0979 107.204 40.8531 107.199C37.7596 107.123 34.6634 107.15 31.5027 107.15L31.4919 107.156Z" fill="white"/>
<path d="M204.986 102.045C204.986 106.118 204.94 109.941 205.01 113.762C205.037 115.141 206.283 115.078 207.248 115.32C207.684 115.429 208.298 115.703 208.419 116.048C208.682 116.8 208.424 117.462 207.434 117.462C204.895 117.462 202.355 117.506 199.819 117.419C199.437 117.405 198.869 116.862 198.751 116.458C198.546 115.746 198.998 115.388 199.773 115.296C201.567 115.076 201.844 114.829 201.874 112.933C201.96 107.72 201.941 102.507 202.025 97.2939C202.035 96.6314 202.234 95.6023 202.659 95.3959C203.528 94.9724 204.448 95.271 205.212 96.1209C209.121 100.473 213.091 104.772 217.029 109.1C217.317 109.415 217.514 109.814 217.753 110.172C217.885 110.085 218.014 109.996 218.146 109.909C218.167 109.491 218.208 109.07 218.208 108.652C218.213 104.72 218.245 100.786 218.189 96.854C218.173 95.6457 218.549 95.1543 219.773 95.2439C220.906 95.3253 222.057 95.176 223.181 95.3091C223.585 95.3579 224.206 95.9118 224.225 96.2621C224.244 96.6341 223.73 97.283 223.337 97.3889C221.253 97.9455 221.158 97.8966 221.121 100.061C221.027 105.361 221.035 110.664 220.946 115.964C220.935 116.528 220.551 117.555 220.327 117.557C219.679 117.566 218.824 117.351 218.401 116.895C214.493 112.662 210.659 108.358 206.802 104.074C206.245 103.455 205.688 102.836 204.981 102.048L204.986 102.045Z" fill="white"/>
<path d="M60.2908 104.552C61.6654 104.552 63.0642 104.658 64.4334 104.492C64.8853 104.438 65.4771 103.737 65.6089 103.227C65.8456 102.306 66.2599 101.959 67.161 102.062C68.1321 102.173 68.0218 102.893 68.0245 103.55C68.0299 105.228 68.0837 106.911 67.9842 108.584C67.96 109.002 67.5054 109.605 67.118 109.743C66.4589 109.98 65.7757 109.749 65.7138 108.845C65.6224 107.509 64.8127 107.183 63.6533 107.224C62.5262 107.262 61.3964 107.232 60.1132 107.232C60.1132 109.654 60.0863 111.94 60.1509 114.221C60.159 114.473 60.6647 114.916 60.9525 114.927C62.701 114.992 64.471 115.109 66.1926 114.889C66.9727 114.791 67.7609 114.055 68.3554 113.425C68.8127 112.942 68.8477 112.051 69.3103 111.576C69.6816 111.193 70.4079 111.068 70.9835 111.044C71.1342 111.039 71.5215 111.872 71.4516 112.255C71.196 113.64 70.771 114.992 70.4509 116.366C70.2734 117.129 69.8806 117.476 69.0817 117.474C63.9169 117.455 58.7548 117.463 53.59 117.465C52.8314 117.465 52.3069 117.256 52.3257 116.35C52.3418 115.413 52.9229 115.326 53.6545 115.318C55.3331 115.293 55.7554 114.927 55.7689 113.238C55.8065 108.69 55.8092 104.139 55.7635 99.5886C55.7474 97.8834 55.4004 97.6689 53.7299 97.3567C53.3371 97.2834 52.7695 96.6725 52.7776 96.3195C52.7857 95.9611 53.399 95.3149 53.7568 95.3094C58.6122 95.2415 63.4704 95.2415 68.3285 95.304C68.7078 95.3094 69.3426 95.8715 69.4099 96.257C69.6439 97.5983 69.7354 98.9777 69.7488 100.341C69.7515 100.672 69.2565 101.275 68.9795 101.28C68.5033 101.291 67.6372 100.992 67.5968 100.721C67.1422 97.6771 65.0144 97.6201 62.6903 97.6852C60.1052 97.7558 60.1025 97.7015 60.1052 100.27C60.1052 101.552 60.1159 102.831 60.1321 104.112C60.1321 104.232 60.2155 104.351 60.2908 104.547V104.552Z" fill="white"/>
<path d="M146.541 117.466C144.047 117.466 141.553 117.466 139.06 117.466C138.382 117.466 137.717 117.479 137.664 116.505C137.607 115.533 138.153 115.359 138.958 115.267C140.65 115.071 140.865 114.802 140.87 112.779C140.894 104.034 140.886 95.2908 140.892 86.5452C140.892 85.0717 141.603 84.335 143.025 84.335C144.424 84.335 145.825 84.3459 147.224 84.3323C147.974 84.3241 148.531 84.5061 148.531 85.4102C148.531 86.2058 148.077 86.4311 147.358 86.5099C145.494 86.7189 145.258 86.9226 145.249 88.8097C145.215 96.8032 145.244 104.797 145.215 112.79C145.209 114.142 145.691 114.895 147.092 114.859C148.658 114.819 150.242 114.884 151.781 114.642C152.44 114.539 153.075 113.857 153.583 113.306C153.952 112.907 154.143 112.31 154.331 111.772C154.646 110.86 155.353 110.754 156.001 111.112C156.332 111.294 156.585 112.027 156.521 112.456C156.33 113.716 155.931 114.943 155.671 116.195C155.477 117.127 155.001 117.504 154.03 117.485C151.536 117.433 149.042 117.469 146.549 117.466H146.541Z" fill="white"/>
<path d="M131.775 99.6077C131.775 103.979 131.751 108.351 131.786 112.719C131.805 114.913 131.864 114.87 134.011 115.35C134.395 115.437 134.931 116.078 134.909 116.434C134.887 116.795 134.269 117.411 133.903 117.417C128.873 117.482 123.842 117.479 118.815 117.419C118.444 117.414 117.871 116.92 117.749 116.537C117.3 115.111 116.961 113.645 116.679 112.174C116.617 111.853 116.908 111.191 117.128 111.145C117.62 111.044 118.188 111.18 118.688 111.332C118.855 111.384 118.922 111.78 119.03 112.022C120.222 114.726 124.171 116.073 126.764 114.571C127.132 114.357 127.358 113.618 127.38 113.108C127.46 111.302 127.428 109.488 127.428 107.68C127.428 101.544 127.436 95.4073 127.417 89.2682C127.412 86.9168 127.342 86.9195 125.112 86.4362C124.733 86.3548 124.211 85.7031 124.227 85.3393C124.243 84.989 124.859 84.3998 125.236 84.3781C127.025 84.2749 128.819 84.3482 130.613 84.3265C131.697 84.3129 131.764 85.008 131.762 85.8307C131.754 90.4221 131.756 95.0136 131.756 99.605H131.772L131.775 99.6077Z" fill="white"/>
<path d="M78.446 97.8728C80.1622 102.152 81.8784 106.431 83.7399 111.074C84.0761 110.376 84.2833 109.988 84.4554 109.583C87.2799 102.885 90.0991 96.1812 92.9182 89.4801C93.0365 89.195 93.0984 88.8583 93.2894 88.6384C93.596 88.2854 93.9915 88.0138 94.3492 87.707C94.5187 88.1197 94.8308 88.5325 94.8361 88.9479C94.8765 91.1119 94.863 93.2759 94.8146 95.4372C94.8039 95.9477 94.6532 96.4853 94.4542 96.9604C91.7426 103.42 89.0123 109.874 86.2819 116.325C85.9914 117.015 85.7601 117.677 84.7594 117.686C83.7695 117.694 83.5193 117.075 83.2046 116.374C80.7459 110.862 78.2361 105.372 75.8394 99.8331C75.1104 98.147 74.0559 97.3922 72.2375 97.4247C71.6134 97.4356 70.8413 97.0093 70.3894 96.5369C69.8272 95.9477 70.1366 95.3015 70.9705 95.2879C74.0747 95.2417 77.1817 95.2553 80.2886 95.2906C80.5684 95.2933 81.0069 95.5703 81.0795 95.8119C81.1494 96.0427 80.9154 96.5043 80.6814 96.6618C80.0734 97.0718 79.3902 97.3704 78.4406 97.87L78.446 97.8728Z" fill="white"/>
<path d="M188.739 115.217C187.95 113.281 187.264 111.543 186.519 109.833C186.441 109.654 186 109.556 185.726 109.553C184.195 109.526 182.662 109.485 181.137 109.578C180.736 109.602 180.182 109.988 180.007 110.354C179.504 111.427 179.203 112.591 178.743 113.686C178.253 114.845 178.6 115.277 179.813 115.361C180.23 115.391 180.843 115.831 180.967 116.214C181.212 116.976 180.771 117.462 179.921 117.462C177.691 117.46 175.458 117.509 173.231 117.416C172.849 117.4 172.222 116.816 172.192 116.455C172.165 116.097 172.709 115.404 173.072 115.353C174.422 115.163 175.138 114.397 175.641 113.205C177.938 107.767 180.27 102.344 182.592 96.9138C182.748 96.55 182.821 96.0966 183.081 95.8413C183.493 95.4395 184.018 94.9562 184.518 94.9263C184.849 94.9046 185.368 95.5562 185.556 96.0124C187.773 101.388 189.952 106.784 192.123 112.179C192.763 113.77 193.363 115.331 195.477 115.396C195.708 115.404 196.115 116.121 196.085 116.48C196.055 116.822 195.574 117.397 195.278 117.405C192.569 117.479 189.855 117.484 187.146 117.405C186.837 117.397 186.318 116.746 186.312 116.387C186.307 116.042 186.783 115.575 187.157 115.369C187.496 115.182 187.985 115.274 188.739 115.22V115.217ZM181.336 106.803H185.414C184.739 105.1 184.125 103.547 183.359 101.614C182.6 103.558 181.992 105.119 181.336 106.803Z" fill="white"/>
<path d="M107.872 115.196C107.113 113.292 106.478 111.617 105.752 109.983C105.644 109.738 105.117 109.57 104.778 109.559C103.293 109.513 101.8 109.475 100.321 109.581C99.8933 109.611 99.3095 110.042 99.1212 110.444C98.5994 111.555 98.2793 112.757 97.8247 113.903C97.4185 114.927 97.8354 115.31 98.7984 115.31C99.5758 115.31 100.189 115.416 100.16 116.442C100.13 117.512 99.4091 117.466 98.6935 117.466C96.6384 117.468 94.5832 117.46 92.528 117.466C91.8421 117.466 91.3014 117.311 91.2664 116.48C91.2342 115.736 91.5435 115.326 92.3236 115.283C93.5664 115.212 94.2577 114.446 94.7258 113.341C97.0284 107.908 99.358 102.483 101.677 97.0554C101.868 96.6101 101.962 96.0644 102.279 95.7467C102.677 95.3503 103.237 95 103.775 94.9131C104.017 94.8724 104.49 95.4643 104.652 95.858C106.895 101.318 109.115 106.787 111.31 112.266C111.936 113.83 112.55 115.302 114.589 115.391C114.831 115.402 115.221 116.176 115.205 116.583C115.194 116.885 114.64 117.406 114.317 117.414C111.651 117.479 108.983 117.485 106.317 117.403C105.997 117.392 105.413 116.719 105.453 116.423C105.507 116.024 105.997 115.603 106.398 115.356C106.694 115.174 107.146 115.258 107.869 115.193L107.872 115.196ZM102.505 101.603C101.739 103.583 101.128 105.155 100.48 106.827H104.555C103.885 105.122 103.267 103.547 102.505 101.603Z" fill="white"/>
<path d="M239.383 118.001C235.044 117.898 231.649 117.222 228.959 114.591C223.789 109.532 224.456 101.46 230.417 97.3925C235.184 94.137 240.416 94.3949 245.713 95.6249C246.03 95.6982 246.412 96.1869 246.477 96.5345C246.732 97.9219 246.926 99.3284 247.02 100.735C247.044 101.082 246.649 101.729 246.377 101.769C245.904 101.843 245.328 101.634 244.892 101.378C244.658 101.24 244.631 100.748 244.499 100.423C243.832 98.7962 242.716 97.607 240.927 97.5038C239.246 97.4061 237.487 97.3382 235.875 97.7265C232.801 98.4677 230.974 100.713 230.624 103.817C230.404 105.785 230.476 107.933 231.033 109.817C232.669 115.345 237.707 116.239 241.5 114.992C242.587 114.634 243.509 113.659 244.397 112.842C244.895 112.383 245.051 111.531 245.567 111.115C246.017 110.751 246.754 110.751 247.364 110.591C247.464 111.05 247.735 111.555 247.633 111.962C247.351 113.07 246.813 114.113 246.555 115.223C246.218 116.665 245.355 117.2 243.972 117.338C242.194 117.518 240.429 117.852 239.388 118.009L239.383 118.001Z" fill="white"/>
<path d="M161.788 107.756C161.788 104.973 161.769 102.193 161.796 99.4099C161.809 98.1664 161.317 97.4957 160.036 97.4794C159.272 97.4685 158.63 97.2839 158.662 96.2956C158.697 95.2692 159.391 95.2557 160.136 95.2611C161.623 95.2719 163.114 95.3263 164.599 95.2448C165.849 95.1769 166.175 95.7335 166.164 96.8956C166.124 101.753 166.145 106.611 166.151 111.468C166.151 112.087 166.223 112.706 166.197 113.32C166.143 114.601 166.802 115.204 167.991 115.267C168.792 115.307 169.365 115.495 169.317 116.47C169.266 117.518 168.529 117.466 167.813 117.466C166.326 117.466 164.835 117.412 163.35 117.482C162.121 117.542 161.758 117.026 161.788 115.837C161.855 113.143 161.809 110.45 161.809 107.756C161.801 107.756 161.796 107.756 161.788 107.756Z" fill="white"/>
<path d="M103.665 31.0296C103.719 13.7854 117.58 -0.073021 134.702 0.000289519C151.59 0.0736 165.395 14.1356 165.336 31.2088C165.276 48.3662 151.399 62.287 134.393 62.2409C117.376 62.1947 103.611 48.2141 103.665 31.0296ZM120.561 36.7397C120.493 38.195 120.469 39.425 120.375 40.6523C120.206 42.8353 120.781 44.7686 122.589 46.023C125.682 48.1707 127.573 51.2932 129.583 54.3369C130.215 55.2927 130.888 56.2294 131.423 57.2395C132.076 58.4776 132.988 58.8958 134.382 58.9012C146.885 58.9501 158.083 50.3021 161.107 38.0457C162.019 34.353 162.25 35.23 158.861 34.0652C156.222 33.1583 154.11 33.0416 153.056 37.0438C152.251 40.1011 150.312 42.2108 147.517 43.563C146.611 44.0029 145.731 44.5106 144.795 44.8772C143.531 45.3713 143.076 46.2918 142.855 47.5897C142.417 50.1501 140.453 51.5593 138.506 52.9196C138.323 53.0472 137.994 52.9956 137.739 52.9739C134.869 52.7322 132.582 50.3266 132.703 47.4295C132.768 45.9144 133.131 44.3911 133.529 42.9195C134.035 41.0487 134.828 39.2567 135.291 37.3805C136.284 33.343 136.577 29.2023 138.113 25.2028C139.245 22.2541 138.847 20.0629 134.627 18.6184C134.411 18.5451 134.207 18.4474 133.771 18.2709C141.486 14.9339 149.166 13.8234 157.217 15.743C151.724 7.74405 144.2 3.38343 134.635 3.43231C123.312 3.48933 114.852 8.82741 109.752 19.0719C106.215 26.1803 106.043 33.5792 108.862 41.1926C109.101 40.9401 109.177 40.8858 109.217 40.8125C109.365 40.5437 109.515 40.2722 109.642 39.9925C111.589 35.6618 114.414 32.0967 118.457 29.5661C119.385 28.9851 120.24 28.29 121.131 27.6438C123.522 25.906 125.774 24.0244 127.423 21.5074C127.517 21.3635 127.716 21.2875 127.867 21.1789C127.998 21.1897 128.13 21.2006 128.265 21.2115C127.052 24.3937 128.542 27.003 129.997 29.7372C128.31 29.9626 128.241 30.9373 128.577 32.1021C128.066 32.2135 127.662 32.3031 127.097 32.428C127.571 32.7429 127.907 32.9683 128.163 33.1366C127.95 34.0435 127.716 34.8336 127.584 35.6428C127.372 36.9542 126.554 37.5651 125.335 37.6276C124.649 37.6629 123.945 37.5407 123.261 37.4076C122.411 37.242 121.575 36.9976 120.561 36.7424V36.7397Z" fill="white"/>
</svg>
