<svg width="110" height="110" viewBox="0 0 110 110" fill="none" xmlns="http://www.w3.org/2000/svg">
<rect x="2.65586" y="2.65586" width="104.688" height="104.688" rx="7.02414" fill="#0A013F"/>
<rect x="2.65586" y="2.65586" width="104.688" height="104.688" rx="7.02414" stroke="#CCFF00" stroke-width="5.31172"/>
<path d="M37.1601 67.9302V60.9028H72.8154V67.9302H54.9878H37.1601Z" fill="#CCFF00" stroke="#010109" stroke-width="0.479368"/>
<path d="M38.0228 23.2259L40.7815 10.8924L69.7818 11.0883L72.2364 23.2259H38.0228Z" fill="#CCFF00" stroke="black" stroke-width="0.479368"/>
<path d="M42.8261 20.1582V16.2946H45.1442V17.0673H45.917V17.84H45.1442V19.3855H45.917V20.1582H45.1442V19.3855H44.3715V18.6127H43.5988V20.1582H42.8261ZM43.5988 17.84H45.1133V17.0673H43.5988V17.84ZM47.4624 20.1582V16.2946H49.7806V17.0673H48.2352V17.84H49.7806V18.6127H48.2352V19.3855H49.7806V20.1582H47.4624ZM52.0988 20.1582V17.0673H51.3261V16.2946H53.6443V17.0673H52.8715V20.1582H52.0988ZM55.1897 20.1582V16.2946H57.5079V17.0673H58.2806V17.84H57.5079V19.3855H58.2806V20.1582H57.5079V19.3855H56.7352V18.6127H55.9624V20.1582H55.1897ZM55.9624 17.84H57.477V17.0673H55.9624V17.84ZM60.5988 20.1582V19.3855H59.8261V17.0673H60.5988V16.2946H62.1443V17.0673H62.917V19.3855H62.1443V20.1582H60.5988ZM60.5988 19.3546H62.1443V17.0982H60.5988V19.3546ZM65.2352 17.0673V16.2946H67.5534V17.0673H65.2352ZM66.7807 19.3855V18.6127H65.2352V17.84H64.4625V17.0673H65.2352V17.84H66.7807V18.6127H67.5534V19.3855H66.7807ZM64.4625 20.1582V19.3855H66.7807V20.1582H64.4625Z" fill="black"/>
<rect x="34.9916" y="54.5766" width="40.0169" height="5.85578" fill="#CCFF00" stroke="#010109" stroke-width="0.479368"/>
<path d="M40.6806 46.9837L43.2404 28.5551H66.9839L69.4197 46.9837H40.6806Z" fill="#CCFF00" stroke="black" stroke-width="0.479368"/>
<path d="M35.2442 54.098L40.5211 47.2739H69.5906L74.7645 54.098H35.2442Z" fill="#CCFF00" stroke="black" stroke-width="0.479368"/>
<path d="M38.333 23.7063L43.0278 28.0757H67.147L71.9475 23.7063H38.333Z" fill="#CCFF00" stroke="#010109" stroke-width="0.479368"/>
<path d="M45.7863 29.2715H64.3751L65.9475 46.268H44.1499L45.7863 29.2715Z" fill="#010109"/>
<rect x="55.0493" y="62.2559" width="7.40725" height="2.2904" fill="#010109"/>
<circle cx="65.0639" cy="63.5473" r="1.2914" fill="#010109"/>
<circle cx="68.5346" cy="63.5605" r="1.27921" fill="#010109"/>
<path d="M44.4257 50.1115C44.4257 50.2247 44.3367 50.3579 44.1238 50.4705C43.9167 50.5801 43.6216 50.6517 43.2885 50.6517C42.9555 50.6517 42.6604 50.5801 42.4533 50.4705C42.2403 50.3579 42.1513 50.2247 42.1513 50.1115C42.1513 49.9983 42.2403 49.865 42.4533 49.7524C42.6604 49.6429 42.9555 49.5712 43.2885 49.5712C43.6216 49.5712 43.9167 49.6429 44.1238 49.7524C44.3367 49.865 44.4257 49.9983 44.4257 50.1115Z" fill="#010109" stroke="#F8F8FA" stroke-width="0.259588"/>
<path d="M47.2754 51.2447C47.2754 51.3632 47.1853 51.4992 46.9757 51.6131C46.7711 51.7244 46.4795 51.7972 46.1504 51.7972C45.8212 51.7972 45.5297 51.7244 45.325 51.6131C45.1154 51.4992 45.0253 51.3632 45.0253 51.2447C45.0253 51.1263 45.1154 50.9903 45.325 50.8764C45.5297 50.7651 45.8212 50.6923 46.1504 50.6923C46.4795 50.6923 46.7711 50.7651 46.9757 50.8764C47.1853 50.9903 47.2754 51.1263 47.2754 51.2447Z" fill="#010109" stroke="#F8F8FA" stroke-width="0.259588"/>
<ellipse cx="65.6108" cy="49.3068" rx="1.25485" ry="0.670064" fill="black"/>
<path d="M69.8083 50.5489C69.8083 51.1074 69.3094 51.639 68.4419 52.0355C67.5815 52.4287 66.3872 52.6741 65.0637 52.6741C63.7403 52.6741 62.546 52.4287 61.6855 52.0355C60.818 51.639 60.3192 51.1074 60.3192 50.5489C60.3192 49.9903 60.818 49.4588 61.6855 49.0623C62.546 48.669 63.7403 48.4236 65.0637 48.4236C66.3872 48.4236 67.5815 48.669 68.4419 49.0623C69.3094 49.4588 69.8083 49.9903 69.8083 50.5489Z" fill="#010109" stroke="#F8F8FA" stroke-width="0.159789"/>
<path d="M64.7222 45.6885H66.1841V49.5609H65.4531H64.7222V45.6885Z" fill="#010109"/>
<path d="M64.7222 45.6885H66.1841V49.5609H65.4531H64.7222V45.6885Z" stroke="#F8F8FA"/>
<circle cx="65.4527" cy="44.3419" r="1.92491" fill="#F8F8FA"/>
<path d="M23.7485 93.415V83.6489H29.6082V85.6021H31.5615V87.5553H29.6082V91.4618H31.5615V93.415H29.6082V91.4618H27.655V89.5086H25.7018V93.415H23.7485ZM25.7018 87.5553H29.5301V85.6021H25.7018V87.5553ZM35.4679 93.415V83.6489H41.3276V85.6021H37.4211V87.5553H41.3276V89.5086H37.4211V91.4618H41.3276V93.415H35.4679ZM47.1873 93.415V85.6021H45.2341V83.6489H51.0938V85.6021H49.1405V93.415H47.1873ZM55.0002 93.415V83.6489H60.8599V85.6021H62.8132V87.5553H60.8599V91.4618H62.8132V93.415H60.8599V91.4618H58.9067V89.5086H56.9535V93.415H55.0002ZM56.9535 87.5553H60.7818V85.6021H56.9535V87.5553ZM68.6729 93.415V91.4618H66.7196V85.6021H68.6729V83.6489H72.5793V85.6021H74.5326V91.4618H72.5793V93.415H68.6729ZM68.6729 91.3837H72.5793V85.6802H68.6729V91.3837ZM80.3922 85.6021V83.6489H86.2519V85.6021H80.3922ZM84.2987 91.4618V89.5086H80.3922V87.5553H78.439V85.6021H80.3922V87.5553H84.2987V89.5086H86.2519V91.4618H84.2987ZM78.439 93.415V91.4618H84.2987V93.415H78.439Z" fill="#CCFF00"/>
</svg>
