<svg width="253" height="118" viewBox="0 0 253 118" fill="none" xmlns="http://www.w3.org/2000/svg">
<path d="M95.635 47.6048H88.6981V79H78.5429V47.6048H74.0375V39.3806H78.5429V37.3782C78.5429 32.5152 79.9255 28.9394 82.6908 26.6509C85.456 24.3624 89.6278 23.2897 95.2059 23.4327V31.8715C92.7744 31.8238 91.0819 32.2291 90.1284 33.0873C89.1748 33.9455 88.6981 35.4949 88.6981 37.7358V39.3806H95.635V47.6048ZM98.8337 59.0473C98.8337 55.0424 99.6203 51.4905 101.194 48.3915C102.815 45.2925 104.984 42.9087 107.702 41.24C110.467 39.5713 113.542 38.737 116.927 38.737C119.883 38.737 122.458 39.3329 124.651 40.5248C126.891 41.7168 128.679 43.2186 130.014 45.0303V39.3806H140.098V79H130.014V73.2073C128.727 75.0667 126.939 76.6162 124.651 77.8558C122.41 79.0477 119.811 79.6436 116.855 79.6436C113.518 79.6436 110.467 78.7855 107.702 77.0691C104.984 75.3527 102.815 72.9451 101.194 69.8461C99.6203 66.6994 98.8337 63.0998 98.8337 59.0473ZM130.014 59.1903C130.014 56.7588 129.538 54.6848 128.584 52.9685C127.63 51.2044 126.343 49.8695 124.722 48.9636C123.101 48.0101 121.361 47.5333 119.502 47.5333C117.642 47.5333 115.926 47.9863 114.352 48.8921C112.779 49.798 111.492 51.1329 110.491 52.897C109.537 54.6133 109.06 56.6634 109.06 59.0473C109.06 61.4311 109.537 63.5289 110.491 65.3406C111.492 67.1046 112.779 68.4634 114.352 69.417C115.973 70.3705 117.69 70.8473 119.502 70.8473C121.361 70.8473 123.101 70.3943 124.722 69.4885C126.343 68.5349 127.63 67.2 128.584 65.4836C129.538 63.7196 130.014 61.6218 130.014 59.1903ZM159.173 26.0788V79H149.161V26.0788H159.173ZM165.776 59.1903C165.776 55.0901 166.61 51.5143 168.279 48.463C169.947 45.364 172.26 42.9802 175.216 41.3115C178.172 39.5951 181.557 38.737 185.371 38.737C190.282 38.737 194.334 39.9766 197.528 42.4558C200.771 44.8873 202.94 48.32 204.036 52.7539H193.238C192.665 51.0376 191.688 49.7026 190.305 48.7491C188.971 47.7479 187.302 47.2473 185.299 47.2473C182.439 47.2473 180.174 48.2962 178.505 50.3939C176.837 52.444 176.002 55.3762 176.002 59.1903C176.002 62.9568 176.837 65.8889 178.505 67.9867C180.174 70.0368 182.439 71.0618 185.299 71.0618C189.352 71.0618 191.998 69.2501 193.238 65.6267H204.036C202.94 69.9176 200.771 73.3265 197.528 75.8533C194.286 78.3802 190.234 79.6436 185.371 79.6436C181.557 79.6436 178.172 78.8093 175.216 77.1406C172.26 75.4242 169.947 73.0404 168.279 69.9891C166.61 66.8901 165.776 63.2905 165.776 59.1903ZM228.249 79.6436C224.435 79.6436 221.002 78.8093 217.951 77.1406C214.899 75.4242 212.492 73.0166 210.727 69.9176C209.011 66.8186 208.153 63.2428 208.153 59.1903C208.153 55.1378 209.035 51.562 210.799 48.463C212.611 45.364 215.066 42.9802 218.165 41.3115C221.264 39.5951 224.721 38.737 228.535 38.737C232.349 38.737 235.805 39.5951 238.904 41.3115C242.003 42.9802 244.435 45.364 246.199 48.463C248.011 51.562 248.917 55.1378 248.917 59.1903C248.917 63.2428 247.987 66.8186 246.127 69.9176C244.316 73.0166 241.837 75.4242 238.69 77.1406C235.591 78.8093 232.111 79.6436 228.249 79.6436ZM228.249 70.9188C230.06 70.9188 231.753 70.4897 233.326 69.6315C234.947 68.7257 236.235 67.3907 237.188 65.6267C238.142 63.8626 238.618 61.7172 238.618 59.1903C238.618 55.4238 237.617 52.5394 235.615 50.537C233.66 48.4869 231.252 47.4618 228.392 47.4618C225.531 47.4618 223.123 48.4869 221.169 50.537C219.262 52.5394 218.308 55.4238 218.308 59.1903C218.308 62.9568 219.238 65.865 221.097 67.9152C223.004 69.9176 225.388 70.9188 228.249 70.9188Z" fill="white"/>
<rect x="4.47754" y="31.1045" width="47.8837" height="14.295" rx="3.57576" transform="rotate(-18.2526 4.47754 31.1045)" fill="#FFD677"/>
<rect y="53.8301" width="38.5581" height="14.295" rx="3.57576" transform="rotate(-18.2526 0 53.8301)" fill="#F871D2"/>
<rect x="15.5464" y="69.9668" width="18.201" height="14.295" rx="3.57576" transform="rotate(-18.2526 15.5464 69.9668)" fill="#5D8AFF"/>
<path d="M150.043 96.2906C150.511 95.4729 151.195 94.8055 152.096 94.2882C152.997 93.7709 154.023 93.5122 155.175 93.5122C156.41 93.5122 157.519 93.8042 158.504 94.3883C159.488 94.9723 160.264 95.7983 160.832 96.8663C161.399 97.9176 161.683 99.144 161.683 100.546C161.683 101.931 161.399 103.166 160.832 104.25C160.264 105.335 159.48 106.178 158.479 106.778C157.494 107.379 156.393 107.679 155.175 107.679C153.99 107.679 152.947 107.421 152.046 106.903C151.161 106.386 150.494 105.727 150.043 104.926V107.454H147.766V88.9317H150.043V96.2906ZM159.355 100.546C159.355 99.5112 159.146 98.6101 158.729 97.8425C158.312 97.0749 157.744 96.4908 157.027 96.0903C156.326 95.6899 155.55 95.4896 154.699 95.4896C153.865 95.4896 153.089 95.6982 152.371 96.1154C151.67 96.5159 151.103 97.1082 150.669 97.8925C150.252 98.6601 150.043 99.5529 150.043 100.571C150.043 101.605 150.252 102.515 150.669 103.299C151.103 104.067 151.67 104.659 152.371 105.076C153.089 105.477 153.865 105.677 154.699 105.677C155.55 105.677 156.326 105.477 157.027 105.076C157.744 104.659 158.312 104.067 158.729 103.299C159.146 102.515 159.355 101.597 159.355 100.546ZM176.245 93.7375L167.985 113.912H165.632L168.335 107.304L162.803 93.7375H165.332L169.637 104.851L173.892 93.7375H176.245ZM191.515 93.4872C192.55 93.4872 193.484 93.7125 194.319 94.163C195.153 94.5969 195.804 95.256 196.271 96.1404C196.755 97.0248 196.997 98.1011 196.997 99.3693V107.454H194.744V99.6947C194.744 98.3264 194.402 97.2835 193.718 96.5659C193.034 95.8317 192.099 95.4646 190.914 95.4646C189.713 95.4646 188.753 95.84 188.036 96.591C187.335 97.3419 186.985 98.4348 186.985 99.8699V107.454H184.707V88.9317H186.985V95.6899C187.435 94.989 188.053 94.4467 188.837 94.0629C189.638 93.6791 190.531 93.4872 191.515 93.4872ZM206.449 107.679C205.165 107.679 203.996 107.387 202.945 106.803C201.911 106.219 201.093 105.393 200.492 104.325C199.908 103.241 199.616 101.989 199.616 100.571C199.616 99.1691 199.917 97.9342 200.517 96.8663C201.135 95.7816 201.969 94.9556 203.02 94.3883C204.072 93.8042 205.248 93.5122 206.55 93.5122C207.851 93.5122 209.028 93.8042 210.079 94.3883C211.13 94.9556 211.956 95.7733 212.557 96.8413C213.174 97.9092 213.483 99.1524 213.483 100.571C213.483 101.989 213.166 103.241 212.532 104.325C211.914 105.393 211.072 106.219 210.004 106.803C208.936 107.387 207.751 107.679 206.449 107.679ZM206.449 105.677C207.267 105.677 208.035 105.485 208.752 105.101C209.47 104.717 210.045 104.142 210.479 103.374C210.93 102.607 211.155 101.672 211.155 100.571C211.155 99.4694 210.938 98.535 210.504 97.7674C210.071 96.9998 209.503 96.4324 208.802 96.0653C208.101 95.6815 207.342 95.4896 206.525 95.4896C205.69 95.4896 204.923 95.6815 204.222 96.0653C203.538 96.4324 202.987 96.9998 202.57 97.7674C202.153 98.535 201.944 99.4694 201.944 100.571C201.944 101.689 202.144 102.632 202.545 103.399C202.962 104.167 203.513 104.742 204.197 105.126C204.881 105.493 205.632 105.677 206.449 105.677ZM218.505 95.9652C218.906 95.1809 219.473 94.5718 220.207 94.138C220.958 93.7041 221.868 93.4872 222.936 93.4872V95.84H222.335C219.782 95.84 218.505 97.2251 218.505 99.9951V107.454H216.227V93.7375H218.505V95.9652ZM237.479 93.7375V107.454H235.202V105.427C234.768 106.127 234.159 106.678 233.374 107.079C232.607 107.462 231.756 107.654 230.821 107.654C229.753 107.654 228.794 107.437 227.943 107.004C227.092 106.553 226.416 105.886 225.915 105.001C225.431 104.117 225.19 103.04 225.19 101.772V93.7375H227.442V101.472C227.442 102.823 227.784 103.866 228.468 104.601C229.153 105.318 230.087 105.677 231.272 105.677C232.49 105.677 233.45 105.301 234.15 104.551C234.851 103.8 235.202 102.707 235.202 101.272V93.7375H237.479ZM245.931 107.679C244.88 107.679 243.937 107.504 243.102 107.154C242.268 106.787 241.609 106.286 241.125 105.652C240.641 105.001 240.374 104.259 240.324 103.424H242.677C242.744 104.108 243.061 104.667 243.628 105.101C244.212 105.535 244.971 105.752 245.906 105.752C246.774 105.752 247.458 105.56 247.958 105.176C248.459 104.793 248.709 104.309 248.709 103.725C248.709 103.124 248.442 102.682 247.908 102.398C247.374 102.098 246.548 101.806 245.43 101.522C244.412 101.255 243.578 100.988 242.927 100.721C242.293 100.437 241.742 100.028 241.275 99.4945C240.825 98.9438 240.599 98.2263 240.599 97.3419C240.599 96.641 240.808 95.9986 241.225 95.4145C241.642 94.8305 242.235 94.3716 243.002 94.0379C243.77 93.6874 244.646 93.5122 245.63 93.5122C247.149 93.5122 248.375 93.896 249.31 94.6636C250.244 95.4312 250.745 96.4825 250.812 97.8174H248.534C248.484 97.0999 248.192 96.5242 247.658 96.0903C247.141 95.6565 246.44 95.4396 245.555 95.4396C244.738 95.4396 244.087 95.6148 243.603 95.9652C243.119 96.3156 242.877 96.7745 242.877 97.3419C242.877 97.7924 243.019 98.1679 243.303 98.4682C243.603 98.7519 243.97 98.9855 244.404 99.1691C244.855 99.3359 245.472 99.5278 246.256 99.7448C247.241 100.012 248.042 100.279 248.659 100.546C249.277 100.796 249.802 101.18 250.236 101.697C250.687 102.214 250.92 102.89 250.937 103.725C250.937 104.475 250.728 105.151 250.311 105.752C249.894 106.353 249.302 106.828 248.534 107.179C247.783 107.513 246.915 107.679 245.931 107.679Z" fill="white"/>
</svg>
