<svg width="229" height="87" viewBox="0 0 229 87" fill="none" xmlns="http://www.w3.org/2000/svg">
<g clip-path="url(#clip0_702_3490)">
<circle cx="43.4046" cy="43.4048" r="37.3941" stroke="#9747FF" stroke-width="12.0215"/>
<path d="M100.585 50.6426C99.4958 50.6426 98.52 50.4659 97.6573 50.1123C96.7945 49.7587 96.1015 49.2354 95.5783 48.5424C95.0691 47.8494 94.8004 47.015 94.7721 46.0391H98.6331C98.6897 46.5907 98.8806 47.015 99.2059 47.312C99.5312 47.5948 99.9555 47.7363 100.479 47.7363C101.016 47.7363 101.44 47.6161 101.752 47.3756C102.063 47.1211 102.218 46.7746 102.218 46.3361C102.218 45.9684 102.091 45.6643 101.836 45.4239C101.596 45.1835 101.292 44.9855 100.924 44.8299C100.571 44.6743 100.062 44.4975 99.3968 44.2995C98.4351 44.0025 97.6502 43.7055 97.042 43.4085C96.4339 43.1115 95.9106 42.6731 95.4722 42.0933C95.0338 41.5134 94.8145 40.7567 94.8145 39.8233C94.8145 38.4373 95.3166 37.3554 96.3208 36.5775C97.3249 35.7855 98.6331 35.3895 100.245 35.3895C101.886 35.3895 103.208 35.7855 104.212 36.5775C105.217 37.3554 105.754 38.4444 105.825 39.8445H101.9C101.872 39.3637 101.695 38.9889 101.37 38.7202C101.044 38.4373 100.627 38.2959 100.118 38.2959C99.6797 38.2959 99.3261 38.4161 99.0574 38.6565C98.7887 38.8828 98.6543 39.2152 98.6543 39.6536C98.6543 40.1345 98.8806 40.5092 99.3332 40.778C99.7858 41.0467 100.493 41.3366 101.455 41.6478C102.416 41.973 103.194 42.2842 103.788 42.5812C104.396 42.8782 104.92 43.3095 105.358 43.8753C105.797 44.441 106.016 45.1693 106.016 46.0603C106.016 46.9089 105.797 47.6797 105.358 48.3727C104.934 49.0657 104.311 49.6173 103.491 50.0274C102.671 50.4376 101.702 50.6426 100.585 50.6426ZM107.527 44.5541C107.527 43.3378 107.753 42.27 108.206 41.3508C108.672 40.4315 109.302 39.7243 110.094 39.2293C110.886 38.7343 111.77 38.4868 112.746 38.4868C113.58 38.4868 114.308 38.6565 114.931 38.996C115.567 39.3354 116.055 39.7809 116.395 40.3325V38.6565H120.022V50.4941H116.395V48.8182C116.041 49.3698 115.546 49.8153 114.91 50.1547C114.287 50.4941 113.559 50.6639 112.724 50.6639C111.763 50.6639 110.886 50.4164 110.094 49.9214C109.302 49.4122 108.672 48.698 108.206 47.7787C107.753 46.8453 107.527 45.7704 107.527 44.5541ZM116.395 44.5753C116.395 43.6702 116.14 42.956 115.631 42.4327C115.136 41.9094 114.528 41.6478 113.806 41.6478C113.085 41.6478 112.47 41.9094 111.961 42.4327C111.466 42.9418 111.218 43.649 111.218 44.5541C111.218 45.4593 111.466 46.1806 111.961 46.718C112.47 47.2413 113.085 47.5029 113.806 47.5029C114.528 47.5029 115.136 47.2413 115.631 46.718C116.14 46.1947 116.395 45.4805 116.395 44.5753ZM128.587 41.669H126.635V50.4941H123.007V41.669H121.692V38.6565H123.007V38.3171C123.007 36.8604 123.424 35.7572 124.259 35.0077C125.093 34.2439 126.317 33.8621 127.929 33.8621C128.198 33.8621 128.396 33.8692 128.523 33.8833V36.9594C127.83 36.9169 127.342 37.0159 127.059 37.2564C126.776 37.4968 126.635 37.9282 126.635 38.5505V38.6565H128.587V41.669ZM141.45 44.3844C141.45 44.7238 141.429 45.0774 141.386 45.4451H133.176C133.233 46.1806 133.466 46.7463 133.876 47.1423C134.301 47.5241 134.817 47.7151 135.425 47.7151C136.33 47.7151 136.96 47.3332 137.313 46.5695H141.174C140.976 47.3473 140.616 48.0474 140.092 48.6697C139.583 49.292 138.94 49.7799 138.162 50.1335C137.384 50.4871 136.514 50.6639 135.552 50.6639C134.393 50.6639 133.36 50.4164 132.455 49.9214C131.55 49.4264 130.843 48.7192 130.334 47.7999C129.825 46.8806 129.57 45.8058 129.57 44.5753C129.57 43.3449 129.817 42.27 130.312 41.3508C130.822 40.4315 131.529 39.7243 132.434 39.2293C133.339 38.7343 134.379 38.4868 135.552 38.4868C136.698 38.4868 137.716 38.7272 138.607 39.2081C139.498 39.689 140.191 40.3749 140.686 41.2659C141.195 42.1569 141.45 43.1964 141.45 44.3844ZM137.737 43.4298C137.737 42.8075 137.525 42.3125 137.101 41.9448C136.677 41.577 136.146 41.3932 135.51 41.3932C134.902 41.3932 134.386 41.57 133.961 41.9235C133.551 42.2771 133.297 42.7792 133.198 43.4298H137.737ZM154.713 40.3961C154.713 41.2588 154.515 42.0508 154.119 42.7721C153.723 43.4793 153.115 44.052 152.295 44.4905C151.475 44.9289 150.456 45.1481 149.24 45.1481H146.991V50.4941H143.364V35.6017H149.24C150.428 35.6017 151.432 35.8067 152.253 36.2169C153.073 36.627 153.688 37.1927 154.098 37.914C154.508 38.6353 154.713 39.4627 154.713 40.3961ZM148.964 42.263C149.657 42.263 150.174 42.1003 150.513 41.775C150.852 41.4498 151.022 40.9901 151.022 40.3961C151.022 39.8021 150.852 39.3425 150.513 39.0172C150.174 38.6919 149.657 38.5292 148.964 38.5292H146.991V42.263H148.964ZM155.881 44.5541C155.881 43.3378 156.107 42.27 156.56 41.3508C157.026 40.4315 157.656 39.7243 158.448 39.2293C159.24 38.7343 160.124 38.4868 161.099 38.4868C161.934 38.4868 162.662 38.6565 163.285 38.996C163.921 39.3354 164.409 39.7809 164.748 40.3325V38.6565H168.376V50.4941H164.748V48.8182C164.395 49.3698 163.9 49.8153 163.263 50.1547C162.641 50.4941 161.913 50.6639 161.078 50.6639C160.117 50.6639 159.24 50.4164 158.448 49.9214C157.656 49.4122 157.026 48.698 156.56 47.7787C156.107 46.8453 155.881 45.7704 155.881 44.5541ZM164.748 44.5753C164.748 43.6702 164.494 42.956 163.985 42.4327C163.49 41.9094 162.881 41.6478 162.16 41.6478C161.439 41.6478 160.824 41.9094 160.315 42.4327C159.82 42.9418 159.572 43.649 159.572 44.5541C159.572 45.4593 159.82 46.1806 160.315 46.718C160.824 47.2413 161.439 47.5029 162.16 47.5029C162.881 47.5029 163.49 47.2413 163.985 46.718C164.494 46.1947 164.748 45.4805 164.748 44.5753ZM174.628 40.6295C175.052 39.9789 175.583 39.4697 176.219 39.102C176.856 38.7202 177.563 38.5292 178.341 38.5292V42.369H177.344C176.438 42.369 175.76 42.567 175.307 42.963C174.854 43.3449 174.628 44.0238 174.628 44.9996V50.4941H171V38.6565H174.628V40.6295ZM191.233 44.3844C191.233 44.7238 191.212 45.0774 191.17 45.4451H182.96C183.016 46.1806 183.25 46.7463 183.66 47.1423C184.084 47.5241 184.6 47.7151 185.208 47.7151C186.114 47.7151 186.743 47.3332 187.097 46.5695H190.958C190.76 47.3473 190.399 48.0474 189.876 48.6697C189.366 49.292 188.723 49.7799 187.945 50.1335C187.167 50.4871 186.297 50.6639 185.336 50.6639C184.176 50.6639 183.144 50.4164 182.238 49.9214C181.333 49.4264 180.626 48.7192 180.117 47.7999C179.608 46.8806 179.353 45.8058 179.353 44.5753C179.353 43.3449 179.601 42.27 180.096 41.3508C180.605 40.4315 181.312 39.7243 182.217 39.2293C183.122 38.7343 184.162 38.4868 185.336 38.4868C186.481 38.4868 187.5 38.7272 188.391 39.2081C189.282 39.689 189.975 40.3749 190.47 41.2659C190.979 42.1569 191.233 43.1964 191.233 44.3844ZM187.521 43.4298C187.521 42.8075 187.309 42.3125 186.884 41.9448C186.46 41.577 185.93 41.3932 185.293 41.3932C184.685 41.3932 184.169 41.57 183.745 41.9235C183.335 42.2771 183.08 42.7792 182.981 43.4298H187.521ZM200.36 38.5292C201.746 38.5292 202.849 38.9818 203.669 39.887C204.504 40.778 204.921 42.0084 204.921 43.5783V50.4941H201.315V44.0662C201.315 43.2742 201.11 42.659 200.699 42.2205C200.289 41.7821 199.738 41.5629 199.045 41.5629C198.352 41.5629 197.8 41.7821 197.39 42.2205C196.98 42.659 196.775 43.2742 196.775 44.0662V50.4941H193.147V38.6565H196.775V40.2264C197.142 39.7031 197.637 39.293 198.26 38.996C198.882 38.6848 199.582 38.5292 200.36 38.5292ZM214.04 47.4181V50.4941H212.194C210.879 50.4941 209.853 50.1759 209.118 49.5395C208.382 48.8889 208.015 47.8353 208.015 46.3786V41.669H206.572V38.6565H208.015V35.7714H211.642V38.6565H214.018V41.669H211.642V46.421C211.642 46.7746 211.727 47.0291 211.897 47.1847C212.067 47.3403 212.349 47.4181 212.745 47.4181H214.04ZM220.876 50.6639C219.843 50.6639 218.924 50.4871 218.118 50.1335C217.312 49.7799 216.675 49.2991 216.209 48.6909C215.742 48.0686 215.48 47.3756 215.424 46.6119H219.009C219.051 47.0221 219.242 47.3544 219.582 47.609C219.921 47.8636 220.338 47.9908 220.833 47.9908C221.286 47.9908 221.633 47.906 221.873 47.7363C222.128 47.5524 222.255 47.3191 222.255 47.0362C222.255 46.6968 222.078 46.4493 221.724 46.2937C221.371 46.124 220.798 45.9401 220.006 45.7421C219.158 45.5441 218.45 45.3391 217.885 45.1269C217.319 44.9006 216.831 44.5541 216.421 44.0874C216.011 43.6065 215.806 42.963 215.806 42.1569C215.806 41.478 215.99 40.8628 216.357 40.3112C216.739 39.7455 217.291 39.3 218.012 38.9747C218.747 38.6495 219.617 38.4868 220.621 38.4868C222.106 38.4868 223.273 38.8545 224.122 39.59C224.984 40.3254 225.479 41.3013 225.607 42.5175H222.255C222.198 42.1074 222.014 41.7821 221.703 41.5417C221.406 41.3013 221.01 41.181 220.515 41.181C220.091 41.181 219.766 41.2659 219.539 41.4356C219.313 41.5912 219.2 41.8104 219.2 42.0933C219.2 42.4327 219.377 42.6873 219.73 42.857C220.098 43.0267 220.664 43.1964 221.427 43.3661C222.304 43.5924 223.019 43.8187 223.57 44.045C224.122 44.2571 224.603 44.6107 225.013 45.1057C225.437 45.5866 225.656 46.2371 225.67 47.0574C225.67 47.7504 225.472 48.3727 225.076 48.9243C224.694 49.4617 224.136 49.886 223.4 50.1971C222.679 50.5083 221.838 50.6639 220.876 50.6639Z" fill="#FFFAFA"/>
</g>
<defs>
<clipPath id="clip0_702_3490">
<rect width="228.471" height="86.8097" fill="white"/>
</clipPath>
</defs>
</svg>
