<?xml version="1.0" encoding="utf-8"?>
<!-- Generator: Adobe Illustrator 26.0.0, SVG Export Plug-In . SVG Version: 6.00 Build 0)  -->
<svg version="1.1" id="Layer_1" xmlns="http://www.w3.org/2000/svg" xmlns:xlink="http://www.w3.org/1999/xlink" x="0px" y="0px"
	 viewBox="0 0 600 138.6" style="enable-background:new 0 0 600 138.6;" xml:space="preserve">
<style type="text/css">
	.st0{fill:#FFFFFF;}
</style>
<g>
	<path class="st0" d="M60.4,85.4c0,17-6,30.7-29.9,30.7C8.4,116.1,1,102.4,1,85.4v-3.6c0-0.4,0.3-0.7,0.7-0.7h15.9
		c0.4,0,0.7,0.3,0.7,0.7v3.6c0,6.7,1.2,15.3,12.4,15.3c11.1,0,12.2-8.6,12.2-15.3V14.7c0-0.4,0.3-0.7,0.7-0.7h16
		c0.4,0,0.7,0.3,0.7,0.7V85.4z"/>
	<path class="st0" d="M113.1,116.1c-22.7,0-36.1-15.3-36.1-37.6c0-22.5,13.4-37.6,36.1-37.6c22.7,0,36.3,15.3,36.3,37.6
		S135.9,116.1,113.1,116.1z M113.1,56.6c-12.2,0-18.6,8.4-18.6,21.9c0,13.4,6.4,21.9,18.6,21.9c12.4,0,18.8-8.4,18.8-21.9
		C131.9,65,125.5,56.6,113.1,56.6z"/>
	<path class="st0" d="M190.5,116.1c-19.8,0-28.8-10-28.8-23c0-12.3,10.6-23.2,31.9-23.2h13.7c2.9,0,4.4-1.7,4.4-3.1
		c0-3-1-10.2-15.3-10.2c-11.1,0-14.3,4.6-14.7,9.4c0,0.4-0.3,0.7-0.7,0.7H165c-0.4,0-0.7-0.3-0.7-0.7c0-16.9,14.9-25.2,32-25.2
		c20.1,0,32.8,9.3,32.8,27.2v27.7c0,2.9,2.2,4.6,5.2,4.6h2.2c0.4,0,0.7,0.3,0.7,0.7V114c0,0.4-0.3,0.7-0.7,0.7h-7.4
		c-7.6,0-11.5-2.9-14.3-6.9c-0.3-0.4-0.9-0.4-1.3,0C209.7,111.5,202,116.1,190.5,116.1z M211.6,84.9c0-0.4-0.3-0.7-0.7-0.7h-16.6
		c-13,0-15.1,5.1-15.1,8.9c0,3,2.6,7.3,11.4,7.3C205.5,100.4,211.6,92.1,211.6,84.9z"/>
	<path class="st0" d="M315.4,66c0.1,0.6-0.3,0.7-0.7,0.7h-16.5c-0.4,0-0.9-0.3-1-0.7c-2.5-6.3-7.3-10-15.7-10
		c-12.2,0-18.1,9.7-18.1,22.5c0,12.7,5.8,22.5,18.1,22.5c9.8,0,13.5-3.7,16-10c0.1-0.4,0.6-0.7,1-0.7H315c0.4,0,0.9,0.1,0.7,0.7
		c-3.1,16.3-15.9,25.2-34.2,25.2c-22.7,0-35.7-15.3-35.7-37.6c0-22.5,13-37.6,35.7-37.6C300,40.9,313,50.7,315.4,66z"/>
	<path class="st0" d="M379.5,114.7c-0.4,0-0.7-0.3-0.7-0.7v-39c0-8.6-4.7-17.7-16.2-17.7c-11.4,0-16,7.7-16,16.3V114
		c0,0.4-0.3,0.7-0.7,0.7h-16c-0.4,0-0.7-0.3-0.7-0.7V14.7c0-0.4,0.3-0.7,0.7-0.7h16c0.3,0,0.7,0.3,0.7,0.7v32.5
		c0,0.9,0.7,1.1,1.5,0.4c1.6-1.6,8.4-6.7,17.5-6.7c21.3,0,30.7,16,30.7,34v39c0,0.4-0.3,0.7-0.7,0.7H379.5z"/>
	<path class="st0" d="M416.2,34.3c-0.4,0-0.7-0.3-0.7-0.7V14.7c0-0.4,0.3-0.7,0.7-0.7h18.9c0.4,0,0.7,0.3,0.7,0.7v18.9
		c0,0.4-0.3,0.7-0.7,0.7H416.2z M417.7,114.7c-0.4,0-0.7-0.3-0.7-0.7V43c0-0.4,0.3-0.7,0.7-0.7h16c0.4,0,0.7,0.3,0.7,0.7V114
		c0,0.4-0.3,0.7-0.7,0.7H417.7z"/>
	<path class="st0" d="M544.2,114.7c-0.4,0-0.7-0.3-0.7-0.7V74.3c0-8.6-3.2-17.7-13.3-17.7c-9.9,0-13.1,7.7-13.1,17.7V114
		c0,0.4-0.3,0.7-0.7,0.7h-16c-0.4,0-0.7-0.3-0.7-0.7V74.3c0-8.6-3.2-17.7-13.3-17.7c-9.9,0-13.1,7.7-13.1,17.7V114
		c0,0.4-0.3,0.7-0.7,0.7h-16c-0.4,0-0.7-0.3-0.7-0.7V43c0-0.4,0.3-0.7,0.7-0.7h13.8c0.9,0,1.2,0.3,1.5,0.9l1.5,4.3
		c0.3,0.6,0.9,0.7,1.3,0.3c3.1-3,10.9-6.9,17.6-6.9c8.6,0,15.1,3.4,18.9,8.4c0.3,0.4,0.9,0.4,1.2,0c4.1-4.3,10-8.4,19.4-8.4
		c18.4,0,29.3,10.3,29.3,32.6V114c0,0.4-0.3,0.7-0.7,0.7H544.2z"/>
	<path class="st0" d="M577.4,114.7c-0.4,0-0.7-0.3-0.7-0.7V92.2c0-0.4,0.3-0.7,0.7-0.7h21.8c0.4,0,0.7,0.3,0.7,0.7V114
		c0,0.4-0.3,0.7-0.7,0.7H577.4z"/>
</g>
</svg>
